<?xml version="1.0" encoding="UTF-8"?>
<svg xmlns="http://www.w3.org/2000/svg" version="1.1" xmlns:xlink="http://www.w3.org/1999/xlink" viewBox="0 0 672 448">
  <defs>
    <style>
      .cls-1 {
        clip-path: url(#clippath-6);
      }

      .cls-2 {
        clip-path: url(#clippath-4);
      }

      .cls-3, .cls-4, .cls-5, .cls-6 {
        fill: none;
      }

      .cls-7, .cls-4, .cls-5, .cls-6 {
        stroke-miterlimit: 10;
      }

      .cls-7, .cls-5 {
        stroke: #000;
      }

      .cls-8 {
        clip-path: url(#clippath-1);
      }

      .cls-9 {
        clip-path: url(#clippath-5);
      }

      .cls-10 {
        clip-path: url(#clippath-3);
      }

      .cls-4 {
        stroke-width: 3px;
      }

      .cls-4, .cls-6 {
        stroke: #fff;
      }

      .cls-5 {
        stroke-width: 19px;
      }

      .cls-6 {
        stroke-width: 2px;
      }

      .cls-11 {
        clip-path: url(#clippath);
      }
    </style>
    <clipPath id="clippath">
      <rect class="cls-3" x="191" y="37" width="145" height="350"/>
    </clipPath>
    <clipPath id="clippath-1">
      <rect class="cls-3" x="336" y="37" width="145" height="350"/>
    </clipPath>
    <clipPath id="clippath-3">
      <rect class="cls-3" x="251" y="136" width="85" height="250"/>
    </clipPath>
    <clipPath id="clippath-4">
      <rect class="cls-3" x="251" y="136" width="85" height="250"/>
    </clipPath>
    <clipPath id="clippath-5">
      <rect class="cls-3" x="336" y="136" width="85" height="250"/>
    </clipPath>
    <clipPath id="clippath-6">
      <rect class="cls-3" x="336" y="136" width="85" height="250"/>
    </clipPath>
  </defs>
  <!-- Generator: Adobe Illustrator 28.6.0, SVG Export Plug-In . SVG Version: 1.2.0 Build 709)  -->
  <g>
    <g id="_Слой_1" data-name="Слой_1">
      <g>
        <g>
          <g id="_x3C_Зеркальный_повтор_x3E_">
            <g class="cls-11">
              <path class="cls-7" d="M335.49,386.5v-139.89s-41.95-41.73-41.95-41.73v-66.46l-47.4-80.51-39.45-20.13-15.17,122.78,61.46,192.63-8.26,8.21c-4.77,8.24-9.47,16.52-14.52,24.59h67.54v-6.04h19.17v6.54h18.59Z"/>
            </g>
          </g>
          <g id="_x3C_Зеркальный_повтор_x3E_-2" data-name="_x3C_Зеркальный_повтор_x3E_">
            <g class="cls-8">
              <path class="cls-7" d="M442.96,385.99c-.04-.07-.09-.14-.13-.21-.53-.25-1.2-.53-1.49-1.02-.22-.37-.16-.85.12-1.17-.61-.71-1.13-1.49-1.53-2.32-.03-.03-.07-.07-.1-.11-.61-.81-1.21-1.62-1.72-2.49-1.8-1.43-2.61-3.81-3.75-5.88-.07-.06-.13-.12-.19-.2-.84-1.18-1.62-2.39-2.38-3.62-.11-.15-.23-.31-.34-.46-.09-.12-.14-.25-.16-.37-.13-.22-.26-.43-.39-.65-.2-.22-.41-.44-.61-.66-.23-.25-.29-.53-.25-.78-.11-.18-.21-.36-.32-.53-.31,0-.62-.1-.86-.42-.51-.69-.98-1.4-1.4-2.14-.18-.07-.36-.15-.56-.21-.85-.26-.85-1.23-.37-1.71-.02-.03-.04-.05-.07-.08-.15-.19-.22-.39-.23-.58l-7.2-7.17,61.46-192.63-15.17-122.78-39.45,20.13-47.4,80.51v66.46l-41.95,41.73v139.89s18.59,0,18.59,0v-6.54h19.17v6.04h68.7Z"/>
            </g>
          </g>
        </g>
        <g>
          <line class="cls-4" x1="110.75" y1="223" x2="560.75" y2="223"/>
          <line class="cls-4" x1="122.94" y1="149.94" x2="548.56" y2="296.06"/>
          <line class="cls-4" x1="158.19" y1="84.8" x2="513.31" y2="361.2"/>
          <line class="cls-4" x1="212.69" y1="34.64" x2="458.81" y2="411.36"/>
          <line class="cls-4" x1="280.52" y1="4.88" x2="390.98" y2="441.11"/>
          <line class="cls-4" x1="354.33" y1="-1.23" x2="317.17" y2="447.23"/>
          <line class="cls-4" x1="426.13" y1="16.95" x2="245.37" y2="429.05"/>
          <line class="cls-4" x1="488.14" y1="57.46" x2="183.36" y2="388.54"/>
          <line class="cls-4" x1="533.63" y1="115.91" x2="137.87" y2="330.09"/>
          <line class="cls-4" x1="557.68" y1="185.97" x2="113.82" y2="260.03"/>
          <line class="cls-4" x1="557.68" y1="260.03" x2="113.82" y2="185.97"/>
          <line class="cls-4" x1="533.63" y1="330.09" x2="137.87" y2="115.91"/>
          <line class="cls-4" x1="488.14" y1="388.54" x2="183.36" y2="57.46"/>
          <line class="cls-4" x1="426.13" y1="429.05" x2="245.37" y2="16.95"/>
          <line class="cls-4" x1="354.33" y1="447.23" x2="317.17" y2="-1.23"/>
          <line class="cls-4" x1="280.51" y1="441.12" x2="390.98" y2="4.89"/>
          <line class="cls-4" x1="212.69" y1="411.36" x2="458.81" y2="34.64"/>
          <line class="cls-4" x1="158.19" y1="361.2" x2="513.31" y2="84.8"/>
          <line class="cls-4" x1="122.94" y1="296.06" x2="548.56" y2="149.94"/>
        </g>
        <path class="cls-7" d="M305.73,207.24l30,30,30.85-31.74-4.85-45.26s-1-14-14-19-33-2-31,5c0,0-20-1-17,15s4-3,14,1-8,45-8,45Z"/>
        <g>
          <g id="_x3C_Зеркальный_повтор_x3E_-4" data-name="_x3C_Зеркальный_повтор_x3E_">
            <g class="cls-10">
              <g id="_x3C_Зеркальный_повтор_x3E_-5" data-name="_x3C_Зеркальный_повтор_x3E_">
                <g class="cls-2">
                  <path class="cls-7" d="M293.77,203.87v-65.37c-.2-.22-.4-.45-.6-.68l-41.59,41.21,46.42,154.99-23.43,45.42v6.06h23.48l-.05-6.06h19.3v6.06h18.2v-140.29l-41.72-41.34Z"/>
                </g>
              </g>
            </g>
          </g>
          <g id="_x3C_Зеркальный_повтор_x3E_-6" data-name="_x3C_Зеркальный_повтор_x3E_">
            <g class="cls-9">
              <g id="_x3C_Зеркальный_повтор_x3E_-7" data-name="_x3C_Зеркальный_повтор_x3E_">
                <g class="cls-1">
                  <path class="cls-7" d="M378.23,203.87v-65.37c.2-.22.4-.45.6-.68l41.59,41.21-46.42,154.99,23.43,45.42v6.06h-23.48l.05-6.06h-19.3v6.06h-18.2v-140.29l41.72-41.34Z"/>
                </g>
              </g>
            </g>
          </g>
        </g>
        <path class="cls-6" d="M214.68,387.5c-20.68.5-40.68.5-62.18,0"/>
        <path class="cls-4" d="M442.3,386.76c-70.3.24-141.3.24-211.67-.23"/>
        <path class="cls-6" d="M458.94,387.7c-1.39,0-2.78.01-4.17.02"/>
        <path class="cls-6" d="M500.5,387.5c-11.77.07-23.55.12-35.32.17"/>
      </g>
      <line class="cls-5" x1="335.5" y1="245.5" x2="335.5" y2="384.5"/>
    </g>
  </g>
</svg>